<?xml version="1.0" standalone="no"?>
<!DOCTYPE svg PUBLIC "-//W3C//DTD SVG 20010904//EN"
 "http://www.w3.org/TR/2001/REC-SVG-20010904/DTD/svg10.dtd">
<svg version="1.0" xmlns="http://www.w3.org/2000/svg"
 width="972.000000pt" height="859.000000pt" viewBox="0 0 972.000000 859.000000"
 preserveAspectRatio="xMidYMid meet">

<g transform="translate(0.000000,859.000000) scale(0.100000,-0.100000)"
fill="#000000" stroke="none">
<path d="M4435 8434 c-120 -7 -384 -34 -530 -55 -737 -106 -1372 -336 -1861
-675 -510 -353 -877 -853 -1122 -1526 -137 -374 -215 -726 -273 -1228 -20
-167 -23 -247 -23 -560 -1 -359 -1 -367 27 -514 15 -82 48 -229 73 -328 158
-631 529 -1462 909 -2038 242 -366 547 -677 868 -884 356 -229 794 -369 1367
-436 398 -46 1049 -52 1300 -11 468 75 910 222 1405 466 454 224 774 431 1096
712 607 528 1024 1286 1163 2113 53 318 60 404 61 760 0 384 -10 466 -91 748
-90 313 -172 514 -380 932 -312 624 -498 906 -857 1298 -621 679 -1419 1090
-2342 1208 -117 15 -631 26 -790 18z m29 -2610 c12 -11 16 -35 16 -84 l0 -69
560 -3 c482 -3 561 -5 573 -18 24 -25 178 -430 172 -450 -10 -30 -29 -40 -94
-46 -53 -6 -61 -10 -62 -28 0 -12 -1 -199 -2 -416 -2 -363 -3 -397 -20 -422
-10 -14 -26 -30 -35 -35 -20 -9 -1482 -17 -1559 -8 -37 4 -59 14 -77 32 l-26
26 0 422 0 422 -61 6 c-68 6 -99 26 -99 66 0 29 151 416 170 435 7 7 65 12
154 14 l144 4 4 68 c5 96 11 100 129 100 75 0 101 -4 113 -16z m-1237 -2119
c86 -36 113 -89 113 -220 l0 -95 -59 0 -59 0 -3 86 c-3 71 -7 88 -23 100 -27
19 -42 18 -66 -6 -16 -16 -20 -33 -20 -88 l0 -68 116 -158 116 -159 -4 -122
c-3 -116 -4 -123 -32 -160 -61 -79 -172 -96 -246 -36 -61 49 -74 82 -74 190
l-1 96 63 3 62 3 0 -78 c0 -88 16 -123 55 -123 37 0 55 35 55 108 l0 64 -121
166 -120 167 4 105 c5 137 30 187 117 224 45 20 82 20 127 1z m4070 -6 c68
-25 113 -97 113 -181 0 -43 -17 -52 -86 -46 -38 3 -39 4 -42 43 -2 22 -8 45
-14 52 -17 21 -76 16 -88 -6 -14 -27 -14 -645 0 -672 12 -22 68 -27 88 -7 8 8
12 65 12 190 l0 178 -40 0 -41 0 3 63 3 62 103 3 102 3 0 -254 c0 -246 -1
-255 -23 -297 -33 -63 -92 -93 -174 -88 -70 4 -103 23 -140 78 -23 33 -23 36
-23 396 0 376 2 398 43 443 43 47 137 66 204 40z m-5079 -161 l3 -158 59 0 59
0 3 158 3 157 55 0 55 0 3 -472 2 -473 -60 0 -60 0 0 250 0 250 -60 0 -60 0 0
-250 0 -250 -60 0 -60 0 0 468 c0 258 3 472 7 476 4 4 30 6 58 4 l50 -3 3
-157z m554 152 c52 -15 94 -53 113 -103 14 -37 16 -88 13 -384 l-3 -341 -30
-38 c-88 -108 -237 -95 -301 28 -21 40 -21 706 0 746 19 37 54 68 96 86 42 18
63 19 112 6z m1068 -55 l0 -65 -75 0 -75 0 0 -410 0 -410 -65 0 -65 0 0 410 0
410 -85 0 -85 0 0 65 0 65 225 0 225 0 0 -65z m384 59 c12 -5 16 -21 16 -65
l0 -59 -95 0 -95 0 0 -95 0 -94 88 -3 87 -3 3 -62 3 -63 -91 0 -90 0 0 -185 0
-185 79 0 c110 0 111 -1 111 -71 l0 -59 -155 0 -155 0 0 468 c0 258 3 472 7
475 8 9 266 9 287 1z m216 -404 l0 -410 79 0 c110 0 111 -1 111 -71 l0 -59
-155 0 -155 0 0 475 0 475 60 0 60 0 0 -410z m666 402 c7 -4 26 -108 44 -232
28 -201 39 -262 40 -219 1 39 58 438 64 448 11 18 105 14 113 -5 5 -13 -101
-873 -113 -916 -4 -15 -17 -18 -70 -18 -35 0 -64 3 -64 8 0 4 -29 214 -64 467
-36 252 -62 463 -60 467 6 10 95 10 110 0z m472 -464 l-3 -473 -55 0 -55 0 -3
473 -2 472 60 0 60 0 -2 -472z m650 310 l3 -158 54 0 55 0 0 154 c0 169 -1
166 65 166 70 0 65 38 65 -481 l0 -469 -65 0 -65 0 0 250 0 250 -55 0 -55 0 0
-250 0 -250 -60 0 -60 0 0 468 c0 258 3 472 7 476 4 4 30 6 58 4 l50 -3 3
-157z m609 150 c6 -7 45 -213 87 -458 43 -245 79 -453 82 -462 5 -16 -2 -18
-60 -18 l-65 0 -6 43 c-4 23 -14 96 -23 162 l-17 120 -66 3 -67 3 -5 -33 c-3
-18 -14 -93 -23 -165 l-17 -133 -64 0 -64 0 6 33 c3 17 35 228 71 467 38 255
70 438 77 442 20 13 144 9 154 -4z m-920 -24 c15 -11 38 -40 51 -65 21 -40 23
-56 21 -169 -1 -97 2 -133 15 -162 13 -30 16 -73 16 -219 0 -168 -2 -184 -22
-220 -35 -62 -82 -79 -216 -79 l-112 0 0 471 0 471 109 -4 c91 -2 114 -6 138
-24z"/>
<path d="M4290 5701 c0 -53 -4 -82 -13 -90 -8 -6 -74 -12 -166 -13 l-153 -3
-74 -185 c-41 -101 -74 -186 -74 -187 0 -2 430 -3 955 -3 525 0 955 1 955 3 0
2 -33 86 -73 187 l-73 185 -569 3 c-522 2 -571 3 -582 19 -8 10 -13 47 -13 90
l0 73 -60 0 -60 0 0 -79z"/>
<path d="M4373 5152 l-403 -2 0 -30 0 -30 796 0 795 0 -3 33 -3 32 -390 0
c-214 0 -571 -1 -792 -3z"/>
<path d="M3970 4686 c0 -189 3 -351 6 -360 5 -14 39 -16 270 -16 l263 0 3 261
3 261 30 24 c29 23 34 24 222 24 188 0 192 0 220 -24 l28 -24 3 -261 3 -261
267 2 267 3 3 358 2 357 -795 0 -795 0 0 -344z m392 177 c15 -14 18 -32 18
-123 0 -141 -4 -145 -140 -145 -136 0 -140 4 -140 143 0 142 0 142 138 142 84
0 109 -3 124 -17z m1050 0 c15 -14 18 -32 18 -123 0 -141 -4 -145 -140 -145
-136 0 -140 4 -140 143 0 142 0 142 138 142 84 0 109 -3 124 -17z"/>
<path d="M4160 4740 l0 -80 80 0 80 0 0 80 0 80 -80 0 -80 0 0 -80z"/>
<path d="M5210 4740 l0 -80 80 0 80 0 0 80 0 80 -80 0 -80 0 0 -80z"/>
<path d="M4587 4813 c-4 -3 -7 -118 -7 -255 l0 -248 190 0 190 0 0 243 c0 176
-3 246 -12 255 -13 13 -349 18 -361 5z m202 -197 c7 -9 11 -40 9 -78 -3 -59
-4 -63 -29 -66 -19 -2 -28 3 -37 23 -6 14 -18 25 -27 25 -23 0 -20 51 4 57 10
2 24 16 30 29 12 27 33 31 50 10z"/>
<path d="M2687 3552 c-15 -17 -17 -51 -17 -328 0 -340 1 -349 55 -342 52 6 55
24 55 343 0 213 -4 297 -13 315 -16 32 -57 38 -80 12z"/>
<path d="M6760 3509 c0 -8 -9 -72 -20 -144 -27 -177 -28 -165 25 -165 54 0 52
-11 25 176 -18 123 -30 173 -30 133z"/>
<path d="M5790 3459 l0 -100 38 3 37 3 3 77 c3 92 -7 118 -48 118 l-30 0 0
-101z"/>
<path d="M5790 3055 l0 -175 49 0 c35 0 51 4 55 16 10 27 7 294 -4 315 -8 14
-21 19 -55 19 l-45 0 0 -175z"/>
</g>
</svg>
