<?xml version="1.0" standalone="no"?>
<!DOCTYPE svg PUBLIC "-//W3C//DTD SVG 20010904//EN"
 "http://www.w3.org/TR/2001/REC-SVG-20010904/DTD/svg10.dtd">
<svg version="1.0" xmlns="http://www.w3.org/2000/svg"
 width="716.000000pt" height="693.000000pt" viewBox="0 0 716.000000 693.000000"
 preserveAspectRatio="xMidYMid meet">

<g transform="translate(0.000000,693.000000) scale(0.100000,-0.100000)"
fill="#000000" stroke="none">
<path d="M3228 4499 c-14 -8 -18 -23 -18 -64 l0 -55 -103 0 c-67 0 -109 -4
-119 -12 -15 -12 -138 -302 -138 -325 0 -22 38 -43 78 -43 l42 0 0 -310 0
-311 25 -24 24 -25 586 0 586 0 24 25 25 24 0 311 0 310 43 0 c31 0 49 6 62
20 17 19 16 24 -41 172 -32 84 -67 160 -76 170 -17 17 -48 18 -428 18 l-410 0
0 55 c0 43 -4 56 -19 65 -25 13 -121 13 -143 -1z m124 -101 l3 -63 422 -3 421
-2 55 -138 55 -137 -348 -3 c-192 -1 -508 -1 -703 0 l-354 3 54 137 54 137
117 3 117 3 3 63 3 62 49 0 49 0 3 -62z m838 -423 l0 -25 -585 0 -585 0 0 25
0 25 585 0 585 0 0 -25z m-5 -330 l0 -260 -197 -3 -198 -2 0 189 c0 245 11
231 -184 231 -196 0 -186 13 -186 -232 l0 -188 -197 2 -198 3 -3 250 c-1 137
0 255 3 262 3 11 121 13 582 11 l578 -3 0 -260z m-445 -80 l0 -185 -135 0
-135 0 0 185 0 185 135 0 135 0 0 -185z"/>
<path d="M3127 3782 c-25 -27 -24 -153 1 -175 23 -21 161 -24 180 -5 7 7 12
44 12 95 0 99 -5 103 -108 103 -54 0 -72 -4 -85 -18z m153 -87 l0 -55 -60 0
-60 0 0 55 0 55 60 0 60 0 0 -55z"/>
<path d="M3908 3789 c-15 -8 -18 -24 -18 -92 0 -51 5 -88 12 -95 7 -7 42 -12
88 -12 100 0 110 10 110 108 0 93 -9 102 -103 102 -40 0 -80 -5 -89 -11z m142
-94 l0 -55 -60 0 -60 0 0 55 0 55 60 0 60 0 0 -55z"/>
<path d="M3573 3586 c-13 -13 -23 -28 -23 -32 0 -15 47 -54 64 -54 14 0 17 9
14 52 -3 61 -20 71 -55 34z"/>
<path d="M2363 2924 c-50 -25 -66 -58 -71 -151 l-4 -81 86 -120 87 -120 -3
-64 c-3 -63 -3 -63 -33 -63 l-30 0 -3 68 -3 67 -49 0 -50 0 0 -62 c0 -108 51
-173 135 -173 87 0 135 65 135 182 l0 71 -85 117 -86 117 3 62 c3 60 3 61 33
61 30 0 30 -1 35 -65 l5 -65 48 -3 47 -3 0 62 c0 139 -92 215 -197 163z"/>
<path d="M5364 2926 c-17 -8 -40 -26 -52 -41 -21 -27 -22 -36 -22 -302 0 -301
3 -319 60 -348 62 -32 157 -8 185 46 12 22 15 71 15 219 l0 190 -75 0 -75 0 0
-44 c0 -41 2 -45 28 -48 l27 -3 0 -135 0 -135 -35 0 -35 0 0 255 0 255 29 3
c33 4 46 -10 46 -50 0 -27 3 -28 46 -28 l46 0 -4 55 c-5 61 -25 90 -75 111
-40 17 -69 17 -109 0z"/>
<path d="M2065 2922 c-33 -11 -63 -37 -80 -68 -12 -24 -15 -74 -15 -279 0
-230 2 -253 20 -282 37 -61 116 -81 177 -43 62 37 64 52 61 340 l-3 258 -25
28 c-25 27 -79 55 -102 53 -7 -1 -22 -4 -33 -7z m63 -104 c9 -9 12 -76 12
-239 0 -194 -2 -230 -16 -243 -8 -9 -19 -16 -24 -16 -5 0 -16 7 -24 16 -14 13
-16 49 -16 243 0 233 3 251 40 251 9 0 21 -5 28 -12z"/>
<path d="M2590 2880 l0 -50 65 0 65 0 0 -300 0 -300 45 0 45 0 0 300 0 299 58
3 57 3 0 45 0 45 -167 3 -168 2 0 -50z"/>
<path d="M3280 2581 l0 -351 110 0 110 0 0 45 0 45 -65 0 -65 0 -2 303 -3 302
-42 3 -43 3 0 -350z"/>
<path d="M4120 2581 l0 -351 45 0 45 0 -2 348 -3 347 -42 3 -43 3 0 -350z"/>
<path d="M1640 2575 l0 -345 45 0 45 0 2 183 3 182 38 3 37 3 0 -185 0 -186
50 0 50 0 0 345 0 345 -50 0 -50 0 0 -115 0 -115 -40 0 -40 0 0 115 0 115 -45
0 -45 0 0 -345z"/>
<path d="M2990 2575 l0 -345 110 0 110 0 0 45 0 45 -65 0 -65 0 0 140 0 140
65 0 65 0 0 45 0 45 -65 0 -65 0 0 70 0 70 65 0 65 0 0 45 0 45 -110 0 -110 0
0 -345z"/>
<path d="M3774 2893 c3 -16 24 -161 46 -323 22 -162 43 -305 45 -318 5 -21 11
-23 53 -20 l47 3 42 315 c23 173 42 327 42 343 1 25 -1 27 -43 27 l-44 0 -11
-82 c-35 -253 -34 -245 -42 -214 -5 16 -16 89 -26 163 l-18 133 -48 0 c-48 0
-48 -1 -43 -27z"/>
<path d="M4270 2575 l0 -345 85 0 c98 0 136 14 160 60 19 37 22 289 3 323 -8
14 -11 54 -9 109 2 73 -1 95 -18 131 -27 55 -53 67 -146 67 l-75 0 0 -345z
m140 235 c6 -11 10 -44 8 -73 -3 -48 -5 -52 -30 -55 l-28 -3 0 75 c0 69 2 76
20 76 10 0 24 -9 30 -20z m25 -360 l0 -125 -35 0 -35 0 -3 128 -3 128 38 -3
38 -3 0 -125z"/>
<path d="M4590 2575 l0 -345 45 0 45 0 2 183 3 182 40 0 40 0 3 -182 2 -183
45 0 45 0 0 345 0 345 -45 0 -45 0 0 -115 0 -115 -45 0 -45 0 0 115 0 115 -45
0 -45 0 0 -345z"/>
<path d="M5006 2893 c-3 -16 -13 -77 -21 -138 -9 -60 -29 -195 -46 -299 -16
-105 -29 -198 -29 -208 0 -15 8 -18 44 -18 l44 0 11 83 c26 176 17 157 71 157
54 0 49 12 71 -152 l12 -88 49 0 c42 0 49 2 44 18 -6 19 -116 648 -116 662 0
6 -29 10 -64 10 -62 0 -65 -1 -70 -27z m90 -195 c7 -40 13 -88 13 -106 1 -32
-1 -33 -31 -30 -18 2 -32 6 -32 11 1 4 8 52 15 107 7 55 14 98 17 95 3 -2 11
-37 18 -77z"/>
</g>
</svg>
